<?xml version="1.0" encoding="UTF-8"?>
<svg version="1.1" xmlns="http://www.w3.org/2000/svg" width="192" height="192">
<path d="M0 0 C1.72065674 0.00845947 1.72065674 0.00845947 3.47607422 0.01708984 C11.78624766 0.13616028 19.23095122 0.76058252 27.1875 3.3125 C27.80173828 3.50054199 28.41597656 3.68858398 29.04882812 3.88232422 C38.89136893 6.95384204 47.27618498 11.46521406 55.859375 17.140625 C58.28328474 18.72242525 60.56380349 20.11991068 63.1875 21.3125 C63.8475 20.4875 64.5075 19.6625 65.1875 18.8125 C68.65861283 15.91990597 68.65861283 15.91990597 72.25 15.8125 C76.06678287 16.29717084 77.57488154 16.5953768 80.1875 19.3125 C81.70856634 22.35463267 81.56179338 25.59297572 81.75 28.9375 C81.79318359 29.64390625 81.83636719 30.3503125 81.88085938 31.078125 C81.98694751 32.82268537 82.08772889 34.56756697 82.1875 36.3125 C82.8475 36.3125 83.5075 36.3125 84.1875 36.3125 C85.28852642 44.66850408 85.28844304 52.90057963 85.1875 61.3125 C84.630625 61.580625 84.07375 61.84875 83.5 62.125 C81.13834323 63.25972495 81.13834323 63.25972495 79.02734375 64.9050293 C75.35465769 66.72526959 72.38895086 66.44061397 68.4375 66.01953125 C67.70176758 65.95344162 66.96603516 65.88735199 66.20800781 65.81925964 C64.65743937 65.67655612 63.10760966 65.52561439 61.55859375 65.36694336 C59.19670662 65.12593943 56.83355169 64.91143658 54.46875 64.70117188 C52.95818612 64.55884553 51.44776304 64.41501521 49.9375 64.26953125 C49.2352832 64.20482132 48.53306641 64.14011139 47.80957031 64.07344055 C43.17844326 63.58818759 39.20806354 62.82792265 35.4375 60 C33.82702647 57.82586074 33.58568466 55.96706443 33.1875 53.3125 C32.8575 52.3225 32.5275 51.3325 32.1875 50.3125 C33.3940625 49.6628125 33.3940625 49.6628125 34.625 49 C37.46596354 47.50775998 37.46596354 47.50775998 38.1875 44.3125 C21.26980032 35.37604885 6.91027189 30.56569715 -12.49609375 33.83984375 C-16.36022218 34.3905617 -20.03287488 34.39353974 -23.921875 34.1875 C-26.05957881 34.12030059 -26.05957881 34.12030059 -27.8125 36.3125 C-28.8025 36.8075 -28.8025 36.8075 -29.8125 37.3125 C-30.039375 38.09625 -30.26625 38.88 -30.5 39.6875 C-32.37279903 43.43309807 -35.03150096 43.80010038 -38.8125 45.3125 C-39.1425 46.3025 -39.4725 47.2925 -39.8125 48.3125 C-41.5625 48.875 -41.5625 48.875 -43.8125 49.3125 C-44.658125 49.68375 -45.50375 50.055 -46.375 50.4375 C-48.8125 51.3125 -48.8125 51.3125 -51.8125 50.3125 C-52.18375 51.034375 -52.555 51.75625 -52.9375 52.5 C-55.20825865 55.90613797 -57.60051648 57.78391723 -60.8125 60.3125 C-62.82996889 62.11857914 -62.82996889 62.11857914 -63.67578125 64.04296875 C-64.88468077 66.45661349 -66.33038334 68.64253557 -67.83374023 70.88110352 C-74.04225526 80.16463352 -78.74433146 89.9160693 -82.8125 100.3125 C-83.4725 100.3125 -84.1325 100.3125 -84.8125 100.3125 C-84.67036703 102.20861434 -84.52363093 104.10438394 -84.375 106 C-84.25318359 107.58361328 -84.25318359 107.58361328 -84.12890625 109.19921875 C-83.84798319 111.96336297 -83.41093148 114.60195741 -82.8125 117.3125 C-85.9874094 119.2203584 -87.91835211 119.4734041 -91.5625 118.9375 C-92.36171875 118.82664062 -93.1609375 118.71578125 -93.984375 118.6015625 C-94.58765625 118.50617188 -95.1909375 118.41078125 -95.8125 118.3125 C-96.80111442 79.75045387 -96.80111442 79.75045387 -92.00390625 65.8515625 C-90.69750587 62.36932924 -90.69750587 62.36932924 -90.390625 58.78515625 C-89.70997127 54.69663484 -88.10276499 51.62451996 -86 48.125 C-85.65646484 47.52236328 -85.31292969 46.91972656 -84.95898438 46.29882812 C-82.92713546 42.82600568 -80.78161386 40.02018245 -77.8125 37.3125 C-75.74417512 35.48710802 -75.74417512 35.48710802 -74.9375 33.3125 C-73.8125 31.3125 -73.8125 31.3125 -72.05859375 30.48046875 C-69.13069281 28.95796026 -67.12699178 26.91097295 -64.75 24.625 C-46.97009159 8.03241264 -24.08540739 -0.12427971 0 0 Z M-89.8125 58.3125 C-88.8125 60.3125 -88.8125 60.3125 -88.8125 60.3125 Z M-81.8125 90.3125 C-80.8125 92.3125 -80.8125 92.3125 -80.8125 92.3125 Z M-82.8125 93.3125 C-81.8125 95.3125 -81.8125 95.3125 -81.8125 95.3125 Z " fill="#030201" transform="translate(95.8125,-0.3125)"/>
<path d="M0 0 C0.79921875 0.11085938 1.5984375 0.22171875 2.421875 0.3359375 C3.02515625 0.43132812 3.6284375 0.52671875 4.25 0.625 C4.32508253 5.65629952 4.37903448 10.6872612 4.41479492 15.71899414 C4.42972839 17.42478122 4.45008266 19.13053096 4.47631836 20.83618164 C4.61651192 30.19616317 4.51137123 38.78915582 1.8996582 47.87426758 C1.13004865 50.65979104 1.13004865 50.65979104 1.25317383 53.74365234 C1.25007098 56.56055807 0.96711841 57.9343115 -0.2890625 60.39453125 C-0.61946533 61.05187256 -0.94986816 61.70921387 -1.2902832 62.38647461 C-1.64823975 63.06331299 -2.00619629 63.74015137 -2.375 64.4375 C-2.73746826 65.1394751 -3.09993652 65.8414502 -3.47338867 66.56469727 C-11.07509569 81.06669856 -11.07509569 81.06669856 -15.75 82.625 C-15.87375 83.24375 -15.9975 83.8625 -16.125 84.5 C-17.03414029 87.591077 -19.01681134 87.9896933 -21.75 89.625 C-23.48909916 91.17447776 -25.19571966 92.76088576 -26.875 94.375 C-32.14531302 99.22905001 -37.52765973 103.09175504 -43.75 106.625 C-44.66136719 107.14835937 -45.57273438 107.67171875 -46.51171875 108.2109375 C-67.84334546 119.67705063 -94.85516633 122.61330955 -118.125 115.82421875 C-130.7252261 111.65582499 -142.394933 105.9921315 -152.75 97.625 C-155.72994277 98.97353857 -155.72994277 98.97353857 -158 101.25 C-160.4628147 103.18506869 -162.76782628 103.03381153 -165.8125 102.921875 C-168.46490414 102.51545824 -169.90479939 101.54400864 -171.75 99.625 C-173.0761171 96.97276579 -173.06958711 94.70267034 -173.28515625 91.7421875 C-173.37216797 90.57558594 -173.45917969 89.40898437 -173.54882812 88.20703125 C-173.63583984 86.98371094 -173.72285156 85.76039063 -173.8125 84.5 C-173.90337891 83.26894531 -173.99425781 82.03789062 -174.08789062 80.76953125 C-174.31235003 77.72160885 -174.53288542 74.67345297 -174.75 71.625 C-175.41 71.625 -176.07 71.625 -176.75 71.625 C-176.88489391 69.35578464 -176.98193995 67.0842933 -177.0625 64.8125 C-177.12050781 63.54792969 -177.17851562 62.28335938 -177.23828125 60.98046875 C-176.75 57.625 -176.75 57.625 -174.29296875 55.73828125 C-173.45378906 55.37089844 -172.61460937 55.00351563 -171.75 54.625 C-171.255 54.13 -171.255 54.13 -170.75 53.625 C-162.05073429 53.07164434 -153.35105807 53.70834049 -144.6875 54.5 C-143.79579102 54.57839111 -142.90408203 54.65678223 -141.98535156 54.73754883 C-131.41422427 55.77967414 -131.41422427 55.77967414 -126.89453125 58.91015625 C-125.27184215 61.34142081 -125.38637778 63.16426335 -125.4375 66.0625 C-125.44136719 67.00996094 -125.44523437 67.95742187 -125.44921875 68.93359375 C-125.75065844 71.63089177 -126.37624037 73.30985928 -127.75 75.625 C-111.58501524 84.23845903 -97.47111549 88.17292066 -78.98828125 85.02734375 C-75.99025548 84.6548508 -73.651299 84.72056649 -70.6875 85.1875 C-66.83751324 85.91581323 -66.83751324 85.91581323 -63.75 84.5 C-61.51040382 82.78869196 -61.51040382 82.78869196 -61.375 80.125 C-61.16875 79.3 -60.9625 78.475 -60.75 77.625 C-58.43895182 76.57452356 -56.10416349 75.57492562 -53.75 74.625 C-52.55767387 72.57496045 -52.55767387 72.57496045 -51.75 70.625 C-49.9375 70 -49.9375 70 -47.75 69.625 C-46.925 69.25375 -46.1 68.8825 -45.25 68.5 C-42.75 67.625 -42.75 67.625 -40.91796875 68.36328125 C-38.50869113 68.91041348 -38.50869113 68.91041348 -36.20703125 66.67578125 C-35.33433594 65.77214844 -34.46164063 64.86851562 -33.5625 63.9375 C-32.68207031 63.04675781 -31.80164063 62.15601563 -30.89453125 61.23828125 C-28.79105188 58.67502497 -28.4348826 57.69803844 -27.75 54.625 C-26.46336602 52.7381283 -25.12141856 50.88867714 -23.75 49.0625 C-19.82046254 43.61017693 -16.70137558 37.93890214 -13.8125 31.875 C-13.24692383 30.70602173 -13.24692383 30.70602173 -12.66992188 29.51342773 C-8.48495257 20.49649591 -6.35701717 11.49605417 -8.75 1.625 C-5.5750906 -0.2828584 -3.64414789 -0.5359041 0 0 Z M-6.75 13.625 C-5.75 17.625 -5.75 17.625 -5.75 17.625 Z M-8.75 22.625 C-7.75 24.625 -7.75 24.625 -7.75 24.625 Z M-9.75 25.625 C-8.75 27.625 -8.75 27.625 -8.75 27.625 Z M-0.75 53.625 C0.25 55.625 0.25 55.625 0.25 55.625 Z M-1.75 56.625 C-0.75 58.625 -0.75 58.625 -0.75 58.625 Z M-2.75 58.625 C-1.75 60.625 -1.75 60.625 -1.75 60.625 Z M-60.75 79.625 C-59.75 81.625 -59.75 81.625 -59.75 81.625 Z " fill="#030301" transform="translate(187.75,73.375)"/>
<path d="M0 0 C3.58040549 2.57999807 6.64337808 5.51558037 9.6171875 8.76953125 C11.18167459 10.43947493 11.18167459 10.43947493 14.125 11.1875 C17.08277611 15.05536107 17.56006466 18.42590214 18.125 23.1875 C18.475625 24.404375 18.82625 25.62125 19.1875 26.875 C22.02067748 38.0360022 19.99012996 50.84472371 15.125 61.1875 C13.69921875 62.82421875 13.69921875 62.82421875 12.125 64.1875 C11.61582031 64.64769531 11.10664063 65.10789062 10.58203125 65.58203125 C8.77872879 67.13689774 6.95781189 68.66751745 5.125 70.1875 C4.50367187 70.70957031 3.88234375 71.23164063 3.2421875 71.76953125 C-6.53839378 79.59003652 -17.50525201 82.21952363 -29.875 81.1875 C-41.20613408 78.87906174 -49.61139976 74.09187418 -57.3671875 65.60546875 C-58.93167459 63.93552507 -58.93167459 63.93552507 -61.875 63.1875 C-64.83277611 59.31963893 -65.31006466 55.94909786 -65.875 51.1875 C-66.225625 49.970625 -66.57625 48.75375 -66.9375 47.5 C-69.77067748 36.3389978 -67.74012996 23.53027629 -62.875 13.1875 C-61.44921875 11.55078125 -61.44921875 11.55078125 -59.875 10.1875 C-59.36582031 9.72730469 -58.85664062 9.26710938 -58.33203125 8.79296875 C-56.52872879 7.23810226 -54.70781189 5.70748255 -52.875 4.1875 C-52.25367187 3.66542969 -51.63234375 3.14335938 -50.9921875 2.60546875 C-36.15318074 -9.25972897 -16.11221579 -10.2034915 0 0 Z " fill="#000303" transform="translate(119.875,58.8125)"/>
<path d="M0 0 C1.60681641 0.52787109 1.60681641 0.52787109 3.24609375 1.06640625 C14.3822714 5.04080181 23.94659135 10.57967863 32.6484375 18.59375 C34.99921091 20.29415524 34.99921091 20.29415524 38.1796875 19.84765625 C41.47411749 18.85750208 42.18145507 17.81874464 44 15 C44.66 15 45.32 15 46 15 C47.27247707 24.05503769 48.27550937 32.8333476 48 42 C44.62472444 41.86015045 41.24985869 41.71204731 37.875 41.5625 C36.92367187 41.52318359 35.97234375 41.48386719 34.9921875 41.44335938 C30.25371013 41.22946977 25.66405699 40.93438179 21 40 C21.37253906 39.55269531 21.74507812 39.10539062 22.12890625 38.64453125 C22.83853516 37.73767578 22.83853516 37.73767578 23.5625 36.8125 C24.03816406 36.22082031 24.51382813 35.62914062 25.00390625 35.01953125 C26.18936208 33.00327909 26.18936208 33.00327909 25.9609375 30.51171875 C23.30362934 23.56599052 13.14671382 19.15468366 6.68359375 16.09375 C-4.37078304 11.58832715 -14.47348474 9.80477856 -26.3125 9.75 C-27.41529297 9.729375 -28.51808594 9.70875 -29.65429688 9.6875 C-36.13548164 9.65654509 -41.16579823 10.06887459 -47 13 C-47.76129575 15.38901957 -47.76129575 15.38901957 -48 18 C-50.19376324 20.47501493 -52.02915861 22.5145793 -55 24 C-55.226875 24.78375 -55.45375 25.5675 -55.6875 26.375 C-57.56029903 30.12059807 -60.21900096 30.48760038 -64 32 C-64.33 32.99 -64.66 33.98 -65 35 C-66.75 35.5625 -66.75 35.5625 -69 36 C-69.845625 36.37125 -70.69125 36.7425 -71.5625 37.125 C-74 38 -74 38 -77 37 C-77.37125 37.721875 -77.7425 38.44375 -78.125 39.1875 C-80.39575865 42.59363797 -82.78801648 44.47141723 -86 47 C-88.01746889 48.80607914 -88.01746889 48.80607914 -88.86328125 50.73046875 C-90.07218077 53.14411349 -91.51788334 55.33003557 -93.02124023 57.56860352 C-98.70809594 66.07210158 -103.74157789 75.11228112 -106.94140625 84.87109375 C-108 87 -108 87 -110.125 87.8125 C-110.74375 87.874375 -111.3625 87.93625 -112 88 C-112.88047413 64.03153767 -105.02832802 41.84296581 -89 24 C-82.38727409 17.16716889 -75.25038044 11.70416428 -67 7 C-66.20078125 6.53851563 -65.4015625 6.07703125 -64.578125 5.6015625 C-45.96550533 -4.43465399 -20.10650381 -6.73824959 0 0 Z M-107 77 C-106 79 -106 79 -106 79 Z M-108 80 C-107 82 -107 82 -107 82 Z " fill="#F3D551" transform="translate(121,13)"/>
<path d="M0 0 C0.6303794 14.05512598 -1.95082704 26.31233637 -8 39 C-8.41894531 39.90234375 -8.83789062 40.8046875 -9.26953125 41.734375 C-19.66062025 62.456662 -38.70532009 76.60550908 -60.2421875 84.2109375 C-83.04068048 90.73401906 -106.66587712 88.19754189 -127.42578125 77.01953125 C-133.11604275 73.85131065 -138.41323819 70.50708132 -143.1875 66.0625 C-145.84731311 63.69717319 -145.84731311 63.69717319 -149.1875 63.9375 C-152.35654572 65.13469505 -153.20270821 66.21419773 -155 69 C-155.66 69 -156.32 69 -157 69 C-157.33865141 66.00051609 -157.67105073 63.00055074 -158 60 C-158.09539062 59.16082031 -158.19078125 58.32164062 -158.2890625 57.45703125 C-158.85214909 52.26859055 -159.09664316 47.21873039 -159 42 C-152.71628693 41.89935995 -146.67190051 42.24058331 -140.4375 43 C-139.21063477 43.14308594 -139.21063477 43.14308594 -137.95898438 43.2890625 C-135.97211325 43.52144509 -133.98597206 43.76005516 -132 44 C-132 44.66 -132 45.32 -132 46 C-132.845625 46.763125 -133.69125 47.52625 -134.5625 48.3125 C-137.28531088 50.69499487 -137.28531088 50.69499487 -136.9453125 53.42578125 C-134.02354216 61.38217238 -121.83522469 65.87183943 -114.75 69.45703125 C-105.7583893 73.39593926 -97.1859781 74.46137719 -87.4375 74.3125 C-85.84905273 74.31733398 -85.84905273 74.31733398 -84.22851562 74.32226562 C-77.59884793 74.27733257 -71.44182149 73.56979525 -65 72 C-64.7215625 70.39125 -64.7215625 70.39125 -64.4375 68.75 C-63.77979215 66.34162862 -63.40038257 65.28517815 -61.34375 63.8203125 C-60.7146875 63.50835937 -60.085625 63.19640625 -59.4375 62.875 C-58.303125 62.25625 -57.16875 61.6375 -56 61 C-55.835 60.154375 -55.67 59.30875 -55.5 58.4375 C-55.335 57.633125 -55.17 56.82875 -55 56 C-52.68895182 54.94952356 -50.35416349 53.94992562 -48 53 C-46.80767387 50.94996045 -46.80767387 50.94996045 -46 49 C-44.1875 48.375 -44.1875 48.375 -42 48 C-41.175 47.62875 -40.35 47.2575 -39.5 46.875 C-37 46 -37 46 -35.16796875 46.73828125 C-32.75869113 47.28541348 -32.75869113 47.28541348 -30.45703125 45.05078125 C-29.58433594 44.14714844 -28.71164063 43.24351562 -27.8125 42.3125 C-26.93207031 41.42175781 -26.05164063 40.53101563 -25.14453125 39.61328125 C-23.04105188 37.05002497 -22.6848826 36.07303844 -22 33 C-20.71336602 31.1131283 -19.37141856 29.26367714 -18 27.4375 C-13.38134604 21.10816406 -10.13053716 14.35405767 -7.0078125 7.18530273 C-6.6571875 6.39712158 -6.3065625 5.60894043 -5.9453125 4.796875 C-5.64125488 4.08885742 -5.33719727 3.38083984 -5.02392578 2.65136719 C-3.76544399 0.62171271 -2.49521242 0 0 0 Z M-4 4 C-3 6 -3 6 -3 6 Z M-55 58 C-54 60 -54 60 -54 60 Z " fill="#F2D451" transform="translate(182,95)"/>
<path d="M0 0 C1.8125 2.5 1.8125 2.5 3 5 C6.77639718 4.48967606 8.44722581 3.79233071 11 1 C19.47413789 7.25105236 26.2684954 16.41858303 28 27 C28.23151895 30.68372374 28.41417647 34.32722927 28 38 C27.34 38.66 26.68 39.32 26 40 C14.11967347 34.93713255 14.11967347 34.93713255 10 31 C8.67376813 27.02130439 8.59098623 24.10613393 8.8515625 19.94140625 C8.90054688 18.97074219 8.94953125 18.00007813 9 17 C8.34 16.34 7.68 15.68 7 15 C3.69316534 15.28983269 3.69316534 15.28983269 1 17 C-0.46369824 27.59218941 -0.46369824 27.59218941 2.62109375 37.31640625 C5.01159315 38.88024454 7.35052386 39.93411879 10 41 C11.94634924 42.06735281 13.88389796 43.15090422 15.8125 44.25 C18.85234731 45.88177951 21.90694727 47.47149842 25 49 C20.91044182 56.18228656 17.10333541 61.62729743 10 66 C9.773125 65.195625 9.54625 64.39125 9.3125 63.5625 C8.24642852 60.77241554 8.24642852 60.77241554 5.5 60.0625 C4.675 60.041875 3.85 60.02125 3 60 C0.8614515 62.1385485 0.57344937 63.13275314 0 66 C-8.94823141 65.67460977 -14.77238478 61.64061455 -20.8125 55.1875 C-25.05899419 50.04232914 -28 44.73625631 -28 38 C-26.02 37.34 -24.04 36.68 -22 36 C-22.66 33.69 -23.32 31.38 -24 29 C-25.32 28.67 -26.64 28.34 -28 28 C-27.66018935 18.65520719 -23.27725897 12.89210837 -16.5625 6.625 C-11.9391356 2.72427911 -6.3858831 -1.41908513 0 0 Z " fill="#00DBF6" transform="translate(91,63)"/>
<path d="M0 0 C8.90824986 0.74235416 15.02608012 4.23375811 21.16796875 10.71484375 C25.33471746 15.91217423 28.38484606 21.22911466 28 28 C26.35 28.66 24.7 29.32 23 30 C22.58219121 32.37305578 22.58219121 32.37305578 23 35 C25.40858714 36.8624438 25.40858714 36.8624438 28 38 C27.44132914 46.75251014 23.23070782 53.5557118 16.890625 59.49609375 C12.0891713 63.31543192 7.12471913 65.38752809 1 66 C1.680625 65.38125 2.36125 64.7625 3.0625 64.125 C7.39507119 59.8172573 11.2675428 54.4649144 14 49 C13.09378906 48.56429687 12.18757813 48.12859375 11.25390625 47.6796875 C-5.45147256 39.54852744 -5.45147256 39.54852744 -10 35 C-10.15357265 32.02895987 -10.23168121 29.09722447 -10.25 26.125 C-10.270625 25.29613281 -10.29125 24.46726562 -10.3125 23.61328125 C-10.31765625 22.81535156 -10.3228125 22.01742187 -10.328125 21.1953125 C-10.34214355 20.09727295 -10.34214355 20.09727295 -10.35644531 18.97705078 C-9.89797898 16.43413275 -9.04915192 15.53228721 -7 14 C-3.65807308 14.24453124 -2.39456443 14.60543557 0 17 C0.1953125 20.2578125 0.1953125 20.2578125 0.125 24.125 C0.10695313 25.40632813 0.08890625 26.68765625 0.0703125 28.0078125 C0.04710938 28.99523437 0.02390625 29.98265625 0 31 C0.70511719 31.26554687 1.41023438 31.53109375 2.13671875 31.8046875 C5.15567786 33.06498967 7.95185076 34.53957994 10.8125 36.125 C11.78832031 36.66382813 12.76414062 37.20265625 13.76953125 37.7578125 C14.50558594 38.16773438 15.24164063 38.57765625 16 39 C17.6629849 37.3370151 17.25095551 35.41186385 17.3125 33.125 C17.17580532 22.55850148 12.69880234 13.99534473 6 6 C4.07589049 4.1685172 2.12289164 2.60511319 0 1 C0 0.67 0 0.34 0 0 Z " fill="#01AFBC" transform="translate(101,63)"/>
<path d="M0 0 C2.4375 0.8125 2.4375 0.8125 4.4375 2.8125 C4.6328125 6.0703125 4.6328125 6.0703125 4.5625 9.9375 C4.54445313 11.21882813 4.52640625 12.50015625 4.5078125 13.8203125 C4.48460938 14.80773437 4.46140625 15.79515625 4.4375 16.8125 C5.48164062 17.20501953 5.48164062 17.20501953 6.546875 17.60546875 C9.72116862 18.93095082 12.68018467 20.45468077 15.6875 22.125 C16.74453125 22.69863281 17.8015625 23.27226563 18.890625 23.86328125 C21.4375 25.8125 21.4375 25.8125 22.36328125 28.42578125 C22.4375 30.8125 22.4375 30.8125 21.375 32.6875 C18.40175651 34.41389945 16.75062066 33.66250245 13.4375 32.8125 C10.408835 31.34598093 7.55675095 29.62952481 4.6875 27.875 C3.92050781 27.41931641 3.15351562 26.96363281 2.36328125 26.49414062 C-3.2495364 23.1254636 -3.2495364 23.1254636 -5.5625 20.8125 C-6.00610072 17.85397891 -5.88662652 14.86301549 -5.875 11.875 C-5.89111328 11.05064453 -5.90722656 10.22628906 -5.92382812 9.37695312 C-5.92447266 8.58353516 -5.92511719 7.79011719 -5.92578125 6.97265625 C-5.92876221 6.24699463 -5.93174316 5.52133301 -5.93481445 4.77368164 C-5.25435928 1.18935612 -3.60203381 -0.26356345 0 0 Z " fill="#000B0C" transform="translate(96.5625,77.1875)"/>
<path d="M0 0 C0.66 0.99 1.32 1.98 2 3 C2.66 2.67 3.32 2.34 4 2 C4.66 2.66 5.32 3.32 6 4 C5.34 4 4.68 4 4 4 C3.814375 4.763125 3.62875 5.52625 3.4375 6.3125 C1.43508383 10.05614763 -1.15476604 10.46190642 -5 12 C-5.33 12.99 -5.66 13.98 -6 15 C-7.75 15.5625 -7.75 15.5625 -10 16 C-11.6744239 16.6469365 -13.34302621 17.30959426 -15 18 C-17.0625 16.3125 -17.0625 16.3125 -19 14 C-18.8170193 10.93878239 -18.35691533 9.40861802 -16.328125 7.0859375 C-5.29018348 -2.00169105 -5.29018348 -2.00169105 0 0 Z " fill="#050401" transform="translate(62,33)"/>
<path d="M0 0 C3.1875 0.875 3.1875 0.875 6 2 C6.51252722 7.36241167 6.51252722 7.36241167 4.20703125 10.23046875 C3.41683594 10.87628906 2.62664062 11.52210938 1.8125 12.1875 C1.03519531 12.84105469 0.25789063 13.49460938 -0.54296875 14.16796875 C-7.08341875 19.04471128 -7.08341875 19.04471128 -10.5625 18.875 C-13.15305206 17.94505824 -14.91312083 16.77771189 -17 15 C-16.9375 12.6875 -16.9375 12.6875 -16 10 C-13.68895182 8.94952356 -11.35416349 7.94992562 -9 7 C-7.80767387 4.94996045 -7.80767387 4.94996045 -7 3 C-5.0625 2.375 -5.0625 2.375 -3 2 C-2.01 1.34 -1.02 0.68 0 0 Z M-16 12 C-15 14 -15 14 -15 14 Z " fill="#060502" transform="translate(143,141)"/>
<path d="M0 0 C0.33 0.99 0.66 1.98 1 3 C1.66 3 2.32 3 3 3 C3.33 2.34 3.66 1.68 4 1 C4.66 1.33 5.32 1.66 6 2 C5.25 7.75 5.25 7.75 3 10 C2.01 10.33 1.02 10.66 0 11 C0 7.37 0 3.74 0 0 Z M4 3 C5 5 5 5 5 5 Z " fill="#7F722A" transform="translate(9,90)"/>
<path d="M0 0 C0 3 0 3 -2.1875 5.48046875 C-3.115625 6.37378906 -4.04375 7.26710938 -5 8.1875 C-5.928125 9.08855469 -6.85625 9.98960938 -7.8125 10.91796875 C-8.534375 11.60503906 -9.25625 12.29210938 -10 13 C-10.66 12.67 -11.32 12.34 -12 12 C-8.27653164 7.57905197 -4.70478962 3.42166518 0 0 Z " fill="#E6CE4F" transform="translate(41,29)"/>
<path d="M0 0 C0.66 0.66 1.32 1.32 2 2 C-0.31 4.31 -2.62 6.62 -5 9 C-5.66 8.34 -6.32 7.68 -7 7 C-5.47005208 5.76302083 -3.94010417 4.52604167 -2.41015625 3.2890625 C-0.86733563 2.0333609 -0.86733563 2.0333609 0 0 Z " fill="#040201" transform="translate(41,51)"/>
<path d="M0 0 C3.96 0 7.92 0 12 0 C12 0.33 12 0.66 12 1 C8.04 1 4.08 1 0 1 C0 0.67 0 0.34 0 0 Z " fill="#000000" transform="translate(90,141)"/>
<path d="M0 0 C0.33 0 0.66 0 1 0 C1 3.96 1 7.92 1 12 C0.67 12 0.34 12 0 12 C0 8.04 0 4.08 0 0 Z " fill="#000000" transform="translate(141,90)"/>
<path d="M0 0 C0.33 0 0.66 0 1 0 C1 3.96 1 7.92 1 12 C0.67 12 0.34 12 0 12 C0 8.04 0 4.08 0 0 Z " fill="#000000" transform="translate(50,90)"/>
<path d="M0 0 C3.96 0 7.92 0 12 0 C12 0.33 12 0.66 12 1 C8.04 1 4.08 1 0 1 C0 0.67 0 0.34 0 0 Z " fill="#000000" transform="translate(90,50)"/>
<path d="M0 0 C3.63 0 7.26 0 11 0 C11 0.33 11 0.66 11 1 C7.37 1 3.74 1 0 1 C0 0.67 0 0.34 0 0 Z " fill="#000000" transform="translate(97,158)"/>
<path d="M0 0 C3.63 0 7.26 0 11 0 C11 0.33 11 0.66 11 1 C7.37 1 3.74 1 0 1 C0 0.67 0 0.34 0 0 Z " fill="#000000" transform="translate(85,158)"/>
<path d="M0 0 C0.33 0 0.66 0 1 0 C1 3.63 1 7.26 1 11 C0.67 11 0.34 11 0 11 C0 7.37 0 3.74 0 0 Z " fill="#000000" transform="translate(12,145)"/>
<path d="M0 0 C3.63 0 7.26 0 11 0 C11 0.33 11 0.66 11 1 C7.37 1 3.74 1 0 1 C0 0.67 0 0.34 0 0 Z " fill="#000000" transform="translate(33,126)"/>
<path d="M0 0 C3.63 0 7.26 0 11 0 C11 0.33 11 0.66 11 1 C7.37 1 3.74 1 0 1 C0 0.67 0 0.34 0 0 Z " fill="#000000" transform="translate(148,65)"/>
<path d="M0 0 C3.63 0 7.26 0 11 0 C11 0.33 11 0.66 11 1 C7.37 1 3.74 1 0 1 C0 0.67 0 0.34 0 0 Z " fill="#000000" transform="translate(84,33)"/>
<path d="M0 0 C0.66 0.33 1.32 0.66 2 1 C0.68 2.32 -0.64 3.64 -2 5 C-2.66 4.67 -3.32 4.34 -4 4 C-2.68 2.68 -1.36 1.36 0 0 Z " fill="#000000" transform="translate(33,171)"/>
<path d="M0 0 C0.33 0 0.66 0 1 0 C1 3.3 1 6.6 1 10 C0.67 10 0.34 10 0 10 C0 6.7 0 3.4 0 0 Z " fill="#000000" transform="translate(13,156)"/>
<path d="M0 0 C3.3 0 6.6 0 10 0 C10 0.33 10 0.66 10 1 C6.7 1 3.4 1 0 1 C0 0.67 0 0.34 0 0 Z " fill="#000000" transform="translate(22,125)"/>
<path d="M0 0 C3.3 0 6.6 0 10 0 C10 0.33 10 0.66 10 1 C6.7 1 3.4 1 0 1 C0 0.67 0 0.34 0 0 Z " fill="#000000" transform="translate(159,66)"/>
<path d="M0 0 C3.3 0 6.6 0 10 0 C10 0.33 10 0.66 10 1 C6.7 1 3.4 1 0 1 C0 0.67 0 0.34 0 0 Z " fill="#000000" transform="translate(138,64)"/>
<path d="M0 0 C3.3 0 6.6 0 10 0 C10 0.33 10 0.66 10 1 C6.7 1 3.4 1 0 1 C0 0.67 0 0.34 0 0 Z " fill="#000000" transform="translate(97,33)"/>
<path d="M0 0 C2.97 0 5.94 0 9 0 C9 0.33 9 0.66 9 1 C6.03 1 3.06 1 0 1 C0 0.67 0 0.34 0 0 Z " fill="#000000" transform="translate(44,127)"/>
<path d="M0 0 C1.65 1.65 3.3 3.3 5 5 C3.0625 4.1875 3.0625 4.1875 1 3 C0.67 2.01 0.34 1.02 0 0 Z " fill="#000000" transform="translate(62,125)"/>
<path d="M0 0 C0 0.99 0 1.98 0 3 C-1.98 3.99 -1.98 3.99 -4 5 C-2.68 3.35 -1.36 1.7 0 0 Z " fill="#000000" transform="translate(129,125)"/>
<path d="M0 0 C1.98 0.99 1.98 0.99 4 2 C4 2.99 4 3.98 4 5 C2.68 3.35 1.36 1.7 0 0 Z " fill="#000000" transform="translate(125,62)"/>
<path d="M0 0 C0.66 0.33 1.32 0.66 2 1 C0.35 2.32 -1.3 3.64 -3 5 C-1.125 1.125 -1.125 1.125 0 0 Z " fill="#000000" transform="translate(65,62)"/>
<path d="M0 0 C0.66 0 1.32 0 2 0 C0.25 3.875 0.25 3.875 -2 5 C-1.34 3.35 -0.68 1.7 0 0 Z " fill="#000000" transform="translate(132,44)"/>
<path d="M0 0 C0.33 0 0.66 0 1 0 C1 2.97 1 5.94 1 9 C0.67 9 0.34 9 0 9 C0 6.03 0 3.06 0 0 Z " fill="#000000" transform="translate(178,26)"/>
<path d="M0 0 C2.64 0 5.28 0 8 0 C8 0.33 8 0.66 8 1 C5.36 1 2.72 1 0 1 C0 0.67 0 0.34 0 0 Z " fill="#000000" transform="translate(20,177)"/>
<path d="M0 0 C0.66 0.33 1.32 0.66 2 1 C1.01 1.99 0.02 2.98 -1 4 C-1.66 3.67 -2.32 3.34 -3 3 C-2.01 2.01 -1.02 1.02 0 0 Z " fill="#000000" transform="translate(160,17)"/>
<path d="M0 0 C2.64 0 5.28 0 8 0 C8 0.33 8 0.66 8 1 C5.36 1 2.72 1 0 1 C0 0.67 0 0.34 0 0 Z " fill="#000000" transform="translate(164,14)"/>
<path d="M0 0 C0.33 0 0.66 0 1 0 C1 2.31 1 4.62 1 7 C0.67 7 0.34 7 0 7 C0 4.69 0 2.38 0 0 Z " fill="#000000" transform="translate(12,105)"/>
<path d="M0 0 C0.33 0 0.66 0 1 0 C1 2.31 1 4.62 1 7 C0.67 7 0.34 7 0 7 C0 4.69 0 2.38 0 0 Z " fill="#000000" transform="translate(179,80)"/>
<path d="M0 0 C1.65 0 3.3 0 5 0 C5 0.33 5 0.66 5 1 C3.35 1 1.7 1 0 1 C0 0.67 0 0.34 0 0 Z " fill="#000000" transform="translate(115,191)"/>
<path d="M0 0 C1.65 0 3.3 0 5 0 C5 0.33 5 0.66 5 1 C3.35 1 1.7 1 0 1 C0 0.67 0 0.34 0 0 Z " fill="#000000" transform="translate(72,191)"/>
<path d="M0 0 C1.65 0 3.3 0 5 0 C5 0.33 5 0.66 5 1 C3.35 1 1.7 1 0 1 C0 0.67 0 0.34 0 0 Z " fill="#000000" transform="translate(80,157)"/>
<path d="M0 0 C1.65 0 3.3 0 5 0 C5 0.33 5 0.66 5 1 C3.35 1 1.7 1 0 1 C0 0.67 0 0.34 0 0 Z " fill="#000000" transform="translate(112,156)"/>
<path d="M0 0 C1.65 0 3.3 0 5 0 C5 0.33 5 0.66 5 1 C3.35 1 1.7 1 0 1 C0 0.67 0 0.34 0 0 Z " fill="#000000" transform="translate(102,140)"/>
<path d="M0 0 C1.65 0 3.3 0 5 0 C5 0.33 5 0.66 5 1 C3.35 1 1.7 1 0 1 C0 0.67 0 0.34 0 0 Z " fill="#000000" transform="translate(85,140)"/>
<path d="M0 0 C1.65 0 3.3 0 5 0 C5 0.33 5 0.66 5 1 C3.35 1 1.7 1 0 1 C0 0.67 0 0.34 0 0 Z " fill="#000000" transform="translate(4,120)"/>
<path d="M0 0 C0.33 0 0.66 0 1 0 C1 1.65 1 3.3 1 5 C0.67 5 0.34 5 0 5 C0 3.35 0 1.7 0 0 Z " fill="#000000" transform="translate(140,102)"/>
<path d="M0 0 C0.33 0 0.66 0 1 0 C1 1.65 1 3.3 1 5 C0.67 5 0.34 5 0 5 C0 3.35 0 1.7 0 0 Z " fill="#000000" transform="translate(51,102)"/>
<path d="M0 0 C0.33 0 0.66 0 1 0 C1 1.65 1 3.3 1 5 C0.67 5 0.34 5 0 5 C0 3.35 0 1.7 0 0 Z " fill="#000000" transform="translate(11,100)"/>
<path d="M0 0 C0.33 0 0.66 0 1 0 C1 1.65 1 3.3 1 5 C0.67 5 0.34 5 0 5 C0 3.35 0 1.7 0 0 Z " fill="#000000" transform="translate(140,85)"/>
<path d="M0 0 C0.33 0 0.66 0 1 0 C1 1.65 1 3.3 1 5 C0.67 5 0.34 5 0 5 C0 3.35 0 1.7 0 0 Z " fill="#000000" transform="translate(51,85)"/>
<path d="M0 0 C1.65 0 3.3 0 5 0 C5 0.33 5 0.66 5 1 C3.35 1 1.7 1 0 1 C0 0.67 0 0.34 0 0 Z " fill="#000000" transform="translate(183,71)"/>
<path d="M0 0 C0 0.99 0 1.98 0 3 C-0.66 2.67 -1.32 2.34 -2 2 C-1.34 1.34 -0.68 0.68 0 0 Z " fill="#000000" transform="translate(178,62)"/>
<path d="M0 0 C1.65 0 3.3 0 5 0 C5 0.33 5 0.66 5 1 C3.35 1 1.7 1 0 1 C0 0.67 0 0.34 0 0 Z " fill="#000000" transform="translate(102,51)"/>
<path d="M0 0 C1.65 0 3.3 0 5 0 C5 0.33 5 0.66 5 1 C3.35 1 1.7 1 0 1 C0 0.67 0 0.34 0 0 Z " fill="#000000" transform="translate(85,51)"/>
<path d="M0 0 C1.65 0 3.3 0 5 0 C5 0.33 5 0.66 5 1 C3.35 1 1.7 1 0 1 C0 0.67 0 0.34 0 0 Z " fill="#000000" transform="translate(75,35)"/>
<path d="M0 0 C1.65 0 3.3 0 5 0 C5 0.33 5 0.66 5 1 C3.35 1 1.7 1 0 1 C0 0.67 0 0.34 0 0 Z " fill="#000000" transform="translate(107,34)"/>
<path d="M0 0 C1.65 0 3.3 0 5 0 C5 0.33 5 0.66 5 1 C3.35 1 1.7 1 0 1 C0 0.67 0 0.34 0 0 Z " fill="#000000" transform="translate(70,34)"/>
<path d="M0 0 C1.65 0 3.3 0 5 0 C5 0.33 5 0.66 5 1 C3.35 1 1.7 1 0 1 C0 0.67 0 0.34 0 0 Z " fill="#000000" transform="translate(115,0)"/>
<path d="M0 0 C1.65 0 3.3 0 5 0 C5 0.33 5 0.66 5 1 C3.35 1 1.7 1 0 1 C0 0.67 0 0.34 0 0 Z " fill="#000000" transform="translate(72,0)"/>
<path d="M0 0 C0.66 0.33 1.32 0.66 2 1 C1.01 1 0.02 1 -1 1 C-0.67 0.67 -0.34 0.34 0 0 Z " fill="#000000" transform="translate(158,170)"/>
<path d="M0 0 C1 4 1 4 1 4 Z " fill="#000000" transform="translate(14,167)"/>
<path d="M0 0 C4 1 4 1 4 1 Z " fill="#000000" transform="translate(108,157)"/>
<path d="M0 0 C4 1 4 1 4 1 Z " fill="#000000" transform="translate(54,128)"/>
<path d="M0 0 C1 4 1 4 1 4 Z " fill="#000000" transform="translate(190,120)"/>
<path d="M0 0 C1 4 1 4 1 4 Z " fill="#000000" transform="translate(191,116)"/>
<path d="M0 0 C1 4 1 4 1 4 Z " fill="#000000" transform="translate(0,72)"/>
<path d="M0 0 C1 4 1 4 1 4 Z " fill="#000000" transform="translate(1,68)"/>
<path d="M0 0 C4 1 4 1 4 1 Z " fill="#000000" transform="translate(80,34)"/>
<path d="M0 0 C1 4 1 4 1 4 Z " fill="#000000" transform="translate(177,21)"/>
<path d="M0 0 C0.66 0.33 1.32 0.66 2 1 C1.01 1 0.02 1 -1 1 C-0.67 0.67 -0.34 0.34 0 0 Z " fill="#000000" transform="translate(33,20)"/>
<path d="M0 0 C4 1 4 1 4 1 Z " fill="#000000" transform="translate(65,2)"/>
<path d="M0 0 C3 1 3 1 3 1 Z " fill="#000000" transform="translate(120,190)"/>
<path d="M0 0 C3 1 3 1 3 1 Z " fill="#000000" transform="translate(69,190)"/>
<path d="M0 0 C3 1 3 1 3 1 Z " fill="#000000" transform="translate(123,189)"/>
<path d="M0 0 C3 1 3 1 3 1 Z " fill="#000000" transform="translate(66,189)"/>
<path d="M0 0 C3 1 3 1 3 1 Z " fill="#000000" transform="translate(63,188)"/>
<path d="M0 0 C3 1 3 1 3 1 Z " fill="#000000" transform="translate(129,187)"/>
<path d="M0 0 C3 1 3 1 3 1 Z " fill="#000000" transform="translate(60,187)"/>
<path d="M0 0 C3 1 3 1 3 1 Z " fill="#000000" transform="translate(134,185)"/>
<path d="M0 0 C3 1 3 1 3 1 Z " fill="#000000" transform="translate(77,156)"/>
<path d="M0 0 C3 1 3 1 3 1 Z " fill="#000000" transform="translate(74,155)"/>
<path d="M0 0 C3 1 3 1 3 1 Z " fill="#000000" transform="translate(71,154)"/>
<path d="M0 0 C3 1 3 1 3 1 Z " fill="#000000" transform="translate(145,140)"/>
<path d="" fill="#000000" transform="translate(0,0)"/>
<path d="M0 0 C3 1 3 1 3 1 Z " fill="#000000" transform="translate(107,139)"/>
<path d="M0 0 C3 1 3 1 3 1 Z " fill="#000000" transform="translate(82,139)"/>
<path d="M0 0 C3 1 3 1 3 1 Z " fill="#000000" transform="translate(110,138)"/>
<path d="M0 0 C3 1 3 1 3 1 Z " fill="#000000" transform="translate(79,138)"/>
<path d="" fill="#000000" transform="translate(0,0)"/>
<path d="" fill="#000000" transform="translate(0,0)"/>
<path d="M0 0 C3 1 3 1 3 1 Z " fill="#000000" transform="translate(17,125)"/>
<path d="" fill="#000000" transform="translate(0,0)"/>
<path d="" fill="#000000" transform="translate(0,0)"/>
<path d="" fill="#000000" transform="translate(0,0)"/>
<path d="" fill="#000000" transform="translate(0,0)"/>
<path d="" fill="#000000" transform="translate(0,0)"/>
<path d="" fill="#000000" transform="translate(0,0)"/>
<path d="" fill="#000000" transform="translate(0,0)"/>
<path d="" fill="#000000" transform="translate(0,0)"/>
<path d="M0 0 C3 1 3 1 3 1 Z " fill="#000000" transform="translate(172,66)"/>
<path d="" fill="#000000" transform="translate(0,0)"/>
<path d="M0 0 C3 1 3 1 3 1 Z " fill="#000000" transform="translate(134,63)"/>
<path d="" fill="#000000" transform="translate(0,0)"/>
<path d="M0 0 C0.66 0.66 1.32 1.32 2 2 C1.34 2 0.68 2 0 2 C0 1.34 0 0.68 0 0 Z " fill="#000000" transform="translate(130,59)"/>
<path d="" fill="#000000" transform="translate(0,0)"/>
<path d="M0 0 C3 1 3 1 3 1 Z " fill="#000000" transform="translate(110,53)"/>
<path d="M0 0 C3 1 3 1 3 1 Z " fill="#000000" transform="translate(79,53)"/>
<path d="M0 0 C3 1 3 1 3 1 Z " fill="#000000" transform="translate(107,52)"/>
<path d="M0 0 C3 1 3 1 3 1 Z " fill="#000000" transform="translate(82,52)"/>
<path d="M0 0 C3 1 3 1 3 1 Z " fill="#000000" transform="translate(118,37)"/>
<path d="M0 0 C3 1 3 1 3 1 Z " fill="#000000" transform="translate(115,36)"/>
<path d="M0 0 C3 1 3 1 3 1 Z " fill="#000000" transform="translate(112,35)"/>
<path d="M0 0 C3 1 3 1 3 1 Z " fill="#000000" transform="translate(129,4)"/>
<path d="M0 0 C3 1 3 1 3 1 Z " fill="#000000" transform="translate(60,4)"/>
<path d="M0 0 C3 1 3 1 3 1 Z " fill="#000000" transform="translate(126,3)"/>
<path d="M0 0 C3 1 3 1 3 1 Z " fill="#000000" transform="translate(123,2)"/>
<path d="M0 0 C3 1 3 1 3 1 Z " fill="#000000" transform="translate(120,1)"/>
<path d="M0 0 C3 1 3 1 3 1 Z " fill="#000000" transform="translate(69,1)"/>
<path d="M0 0 C2 1 2 1 2 1 Z " fill="#000000" transform="translate(127,188)"/>
<path d="M0 0 C2 1 2 1 2 1 Z " fill="#000000" transform="translate(132,186)"/>
<path d="M0 0 C2 1 2 1 2 1 Z " fill="#000000" transform="translate(58,186)"/>
<path d="M0 0 C2 1 2 1 2 1 Z " fill="#000000" transform="translate(56,185)"/>
<path d="M0 0 C2 1 2 1 2 1 Z " fill="#000000" transform="translate(137,184)"/>
<path d="M0 0 C2 1 2 1 2 1 Z " fill="#000000" transform="translate(54,184)"/>
<path d="M0 0 C2 1 2 1 2 1 Z " fill="#000000" transform="translate(139,183)"/>
<path d="M0 0 C2 1 2 1 2 1 Z " fill="#000000" transform="translate(142,181)"/>
<path d="M0 0 C2 1 2 1 2 1 Z " fill="#000000" transform="translate(48,181)"/>
<path d="M0 0 C2 1 2 1 2 1 Z " fill="#000000" transform="translate(144,180)"/>
<path d="M0 0 C2 1 2 1 2 1 Z " fill="#000000" transform="translate(46,180)"/>
<path d="M0 0 C2 1 2 1 2 1 Z " fill="#000000" transform="translate(146,179)"/>
<path d="M0 0 C2 1 2 1 2 1 Z " fill="#000000" transform="translate(43,178)"/>
<path d="M0 0 C2 1 2 1 2 1 Z " fill="#000000" transform="translate(149,177)"/>
<path d="M0 0 C2 1 2 1 2 1 Z " fill="#000000" transform="translate(40,176)"/>
<path d="M0 0 C2 1 2 1 2 1 Z " fill="#000000" transform="translate(153,174)"/>
<path d="M0 0 C2 1 2 1 2 1 Z " fill="#000000" transform="translate(37,174)"/>
<path d="M0 0 C2 1 2 1 2 1 Z " fill="#000000" transform="translate(119,158)"/>
<path d="M0 0 C2 1 2 1 2 1 Z " fill="#000000" transform="translate(121,157)"/>
<path d="M0 0 C2 1 2 1 2 1 Z " fill="#000000" transform="translate(117,157)"/>
<path d="M0 0 C2 1 2 1 2 1 Z " fill="#000000" transform="translate(123,156)"/>
<path d="M0 0 C2 1 2 1 2 1 Z " fill="#000000" transform="translate(69,153)"/>
<path d="M0 0 C2 1 2 1 2 1 Z " fill="#000000" transform="translate(67,152)"/>
<path d="M0 0 C2 1 2 1 2 1 Z " fill="#000000" transform="translate(65,151)"/>
<path d="M0 0 C2 1 2 1 2 1 Z " fill="#000000" transform="translate(63,150)"/>
<path d="M0 0 C2 1 2 1 2 1 Z " fill="#000000" transform="translate(129,149)"/>
<path d="M0 0 C2 1 2 1 2 1 Z " fill="#000000" transform="translate(61,149)"/>
<path d="M0 0 C2 1 2 1 2 1 Z " fill="#000000" transform="translate(132,147)"/>
<path d="M0 0 C2 1 2 1 2 1 Z " fill="#000000" transform="translate(141,140)"/>
<path d="M0 0 C2 1 2 1 2 1 Z " fill="#000000" transform="translate(143,139)"/>
<path d="M0 0 C2 1 2 1 2 1 Z " fill="#000000" transform="translate(113,137)"/>
<path d="M0 0 C2 1 2 1 2 1 Z " fill="#000000" transform="translate(77,137)"/>
<path d="M0 0 C2 1 2 1 2 1 Z " fill="#000000" transform="translate(115,136)"/>
<path d="M0 0 C2 1 2 1 2 1 Z " fill="#000000" transform="translate(75,136)"/>
<path d="M0 0 C2 1 2 1 2 1 Z " fill="#000000" transform="translate(117,135)"/>
<path d="M0 0 C2 1 2 1 2 1 Z " fill="#000000" transform="translate(73,135)"/>
<path d="M0 0 C2 1 2 1 2 1 Z " fill="#000000" transform="translate(120,133)"/>
<path d="M0 0 C2 1 2 1 2 1 Z " fill="#000000" transform="translate(70,133)"/>
<path d="" fill="#000000" transform="translate(0,0)"/>
<path d="" fill="#000000" transform="translate(0,0)"/>
<path d="" fill="#000000" transform="translate(0,0)"/>
<path d="" fill="#000000" transform="translate(0,0)"/>
<path d="" fill="#000000" transform="translate(0,0)"/>
<path d="" fill="#000000" transform="translate(0,0)"/>
<path d="M0 0 C2 1 2 1 2 1 Z " fill="#000000" transform="translate(170,67)"/>
<path d="" fill="#000000" transform="translate(0,0)"/>
<path d="M0 0 C2 1 2 1 2 1 Z " fill="#000000" transform="translate(120,58)"/>
<path d="M0 0 C2 1 2 1 2 1 Z " fill="#000000" transform="translate(70,58)"/>
<path d="M0 0 C2 1 2 1 2 1 Z " fill="#000000" transform="translate(117,56)"/>
<path d="M0 0 C2 1 2 1 2 1 Z " fill="#000000" transform="translate(73,56)"/>
<path d="M0 0 C2 1 2 1 2 1 Z " fill="#000000" transform="translate(115,55)"/>
<path d="M0 0 C2 1 2 1 2 1 Z " fill="#000000" transform="translate(75,55)"/>
<path d="M0 0 C2 1 2 1 2 1 Z " fill="#000000" transform="translate(113,54)"/>
<path d="M0 0 C2 1 2 1 2 1 Z " fill="#000000" transform="translate(77,54)"/>
<path d="M0 0 C2 1 2 1 2 1 Z " fill="#000000" transform="translate(47,52)"/>
<path d="M0 0 C2 1 2 1 2 1 Z " fill="#000000" transform="translate(49,51)"/>
<path d="M0 0 C2 1 2 1 2 1 Z " fill="#000000" transform="translate(45,51)"/>
<path d="M0 0 C2 1 2 1 2 1 Z " fill="#000000" transform="translate(58,44)"/>
<path d="M0 0 C2 1 2 1 2 1 Z " fill="#000000" transform="translate(129,42)"/>
<path d="M0 0 C2 1 2 1 2 1 Z " fill="#000000" transform="translate(127,41)"/>
<path d="M0 0 C2 1 2 1 2 1 Z " fill="#000000" transform="translate(125,40)"/>
<path d="M0 0 C2 1 2 1 2 1 Z " fill="#000000" transform="translate(123,39)"/>
<path d="M0 0 C2 1 2 1 2 1 Z " fill="#000000" transform="translate(121,38)"/>
<path d="M0 0 C2 1 2 1 2 1 Z " fill="#000000" transform="translate(68,35)"/>
<path d="M0 0 C2 1 2 1 2 1 Z " fill="#000000" transform="translate(153,17)"/>
<path d="M0 0 C2 1 2 1 2 1 Z " fill="#000000" transform="translate(37,17)"/>
<path d="M0 0 C2 1 2 1 2 1 Z " fill="#000000" transform="translate(150,15)"/>
<path d="M0 0 C2 1 2 1 2 1 Z " fill="#000000" transform="translate(41,14)"/>
<path d="M0 0 C2 1 2 1 2 1 Z " fill="#000000" transform="translate(147,13)"/>
<path d="M0 0 C2 1 2 1 2 1 Z " fill="#000000" transform="translate(44,12)"/>
<path d="M0 0 C2 1 2 1 2 1 Z " fill="#000000" transform="translate(144,11)"/>
<path d="M0 0 C2 1 2 1 2 1 Z " fill="#000000" transform="translate(46,11)"/>
<path d="M0 0 C2 1 2 1 2 1 Z " fill="#000000" transform="translate(142,10)"/>
<path d="M0 0 C2 1 2 1 2 1 Z " fill="#000000" transform="translate(48,10)"/>
<path d="M0 0 C2 1 2 1 2 1 Z " fill="#000000" transform="translate(51,8)"/>
<path d="M0 0 C2 1 2 1 2 1 Z " fill="#000000" transform="translate(136,7)"/>
<path d="M0 0 C2 1 2 1 2 1 Z " fill="#000000" transform="translate(53,7)"/>
<path d="M0 0 C2 1 2 1 2 1 Z " fill="#000000" transform="translate(134,6)"/>
<path d="M0 0 C2 1 2 1 2 1 Z " fill="#000000" transform="translate(56,6)"/>
<path d="M0 0 C2 1 2 1 2 1 Z " fill="#000000" transform="translate(132,5)"/>
<path d="M0 0 C2 1 2 1 2 1 Z " fill="#000000" transform="translate(58,5)"/>
<path d="M0 0 C2 1 2 1 2 1 Z " fill="#000000" transform="translate(63,3)"/>
<path d="" fill="#000000" transform="translate(0,0)"/>
<path d="" fill="#000000" transform="translate(0,0)"/>
<path d="" fill="#000000" transform="translate(0,0)"/>
<path d="" fill="#000000" transform="translate(0,0)"/>
<path d="" fill="#000000" transform="translate(0,0)"/>
<path d="" fill="#000000" transform="translate(0,0)"/>
<path d="" fill="#000000" transform="translate(0,0)"/>
<path d="" fill="#000000" transform="translate(0,0)"/>
<path d="" fill="#000000" transform="translate(0,0)"/>
<path d="" fill="#000000" transform="translate(0,0)"/>
<path d="" fill="#000000" transform="translate(0,0)"/>
<path d="" fill="#000000" transform="translate(0,0)"/>
<path d="" fill="#000000" transform="translate(0,0)"/>
<path d="" fill="#000000" transform="translate(0,0)"/>
<path d="" fill="#000000" transform="translate(0,0)"/>
<path d="" fill="#000000" transform="translate(0,0)"/>
<path d="" fill="#000000" transform="translate(0,0)"/>
<path d="" fill="#000000" transform="translate(0,0)"/>
<path d="" fill="#000000" transform="translate(0,0)"/>
<path d="" fill="#000000" transform="translate(0,0)"/>
<path d="" fill="#000000" transform="translate(0,0)"/>
<path d="" fill="#000000" transform="translate(0,0)"/>
<path d="" fill="#000000" transform="translate(0,0)"/>
<path d="" fill="#000000" transform="translate(0,0)"/>
<path d="" fill="#000000" transform="translate(0,0)"/>
<path d="" fill="#000000" transform="translate(0,0)"/>
<path d="" fill="#000000" transform="translate(0,0)"/>
<path d="" fill="#000000" transform="translate(0,0)"/>
<path d="" fill="#000000" transform="translate(0,0)"/>
<path d="" fill="#000000" transform="translate(0,0)"/>
<path d="" fill="#000000" transform="translate(0,0)"/>
<path d="" fill="#000000" transform="translate(0,0)"/>
<path d="" fill="#000000" transform="translate(0,0)"/>
<path d="" fill="#000000" transform="translate(0,0)"/>
<path d="" fill="#000000" transform="translate(0,0)"/>
<path d="" fill="#000000" transform="translate(0,0)"/>
<path d="" fill="#000000" transform="translate(0,0)"/>
<path d="" fill="#000000" transform="translate(0,0)"/>
<path d="" fill="#000000" transform="translate(0,0)"/>
<path d="" fill="#000000" transform="translate(0,0)"/>
<path d="" fill="#000000" transform="translate(0,0)"/>
<path d="" fill="#000000" transform="translate(0,0)"/>
<path d="" fill="#000000" transform="translate(0,0)"/>
<path d="" fill="#000000" transform="translate(0,0)"/>
<path d="" fill="#000000" transform="translate(0,0)"/>
<path d="" fill="#000000" transform="translate(0,0)"/>
<path d="" fill="#000000" transform="translate(0,0)"/>
<path d="" fill="#000000" transform="translate(0,0)"/>
<path d="" fill="#000000" transform="translate(0,0)"/>
<path d="" fill="#000000" transform="translate(0,0)"/>
<path d="" fill="#000000" transform="translate(0,0)"/>
<path d="" fill="#000000" transform="translate(0,0)"/>
<path d="" fill="#000000" transform="translate(0,0)"/>
<path d="" fill="#000000" transform="translate(0,0)"/>
<path d="" fill="#000000" transform="translate(0,0)"/>
<path d="" fill="#000000" transform="translate(0,0)"/>
<path d="" fill="#000000" transform="translate(0,0)"/>
<path d="" fill="#000000" transform="translate(0,0)"/>
<path d="" fill="#000000" transform="translate(0,0)"/>
<path d="" fill="#000000" transform="translate(0,0)"/>
<path d="" fill="#000000" transform="translate(0,0)"/>
<path d="" fill="#000000" transform="translate(0,0)"/>
<path d="" fill="#000000" transform="translate(0,0)"/>
<path d="" fill="#000000" transform="translate(0,0)"/>
<path d="" fill="#000000" transform="translate(0,0)"/>
<path d="" fill="#000000" transform="translate(0,0)"/>
<path d="" fill="#000000" transform="translate(0,0)"/>
<path d="" fill="#000000" transform="translate(0,0)"/>
<path d="" fill="#000000" transform="translate(0,0)"/>
<path d="" fill="#000000" transform="translate(0,0)"/>
<path d="" fill="#000000" transform="translate(0,0)"/>
<path d="" fill="#000000" transform="translate(0,0)"/>
<path d="" fill="#000000" transform="translate(0,0)"/>
<path d="" fill="#000000" transform="translate(0,0)"/>
<path d="" fill="#000000" transform="translate(0,0)"/>
<path d="" fill="#000000" transform="translate(0,0)"/>
<path d="" fill="#000000" transform="translate(0,0)"/>
<path d="" fill="#000000" transform="translate(0,0)"/>
<path d="" fill="#000000" transform="translate(0,0)"/>
<path d="" fill="#000000" transform="translate(0,0)"/>
<path d="" fill="#000000" transform="translate(0,0)"/>
<path d="" fill="#000000" transform="translate(0,0)"/>
<path d="" fill="#000000" transform="translate(0,0)"/>
<path d="" fill="#000000" transform="translate(0,0)"/>
<path d="" fill="#000000" transform="translate(0,0)"/>
<path d="" fill="#000000" transform="translate(0,0)"/>
<path d="" fill="#000000" transform="translate(0,0)"/>
<path d="" fill="#000000" transform="translate(0,0)"/>
<path d="" fill="#000000" transform="translate(0,0)"/>
<path d="" fill="#000000" transform="translate(0,0)"/>
<path d="" fill="#000000" transform="translate(0,0)"/>
<path d="" fill="#000000" transform="translate(0,0)"/>
<path d="" fill="#000000" transform="translate(0,0)"/>
<path d="" fill="#000000" transform="translate(0,0)"/>
<path d="" fill="#000000" transform="translate(0,0)"/>
<path d="" fill="#000000" transform="translate(0,0)"/>
<path d="" fill="#000000" transform="translate(0,0)"/>
<path d="" fill="#000000" transform="translate(0,0)"/>
<path d="" fill="#000000" transform="translate(0,0)"/>
<path d="" fill="#000000" transform="translate(0,0)"/>
<path d="" fill="#000000" transform="translate(0,0)"/>
<path d="" fill="#000000" transform="translate(0,0)"/>
<path d="" fill="#000000" transform="translate(0,0)"/>
<path d="" fill="#000000" transform="translate(0,0)"/>
<path d="" fill="#000000" transform="translate(0,0)"/>
<path d="" fill="#000000" transform="translate(0,0)"/>
<path d="" fill="#000000" transform="translate(0,0)"/>
<path d="" fill="#000000" transform="translate(0,0)"/>
<path d="" fill="#000000" transform="translate(0,0)"/>
<path d="" fill="#000000" transform="translate(0,0)"/>
<path d="" fill="#000000" transform="translate(0,0)"/>
<path d="" fill="#000000" transform="translate(0,0)"/>
<path d="" fill="#000000" transform="translate(0,0)"/>
<path d="" fill="#000000" transform="translate(0,0)"/>
<path d="" fill="#000000" transform="translate(0,0)"/>
<path d="" fill="#000000" transform="translate(0,0)"/>
<path d="" fill="#000000" transform="translate(0,0)"/>
<path d="" fill="#000000" transform="translate(0,0)"/>
<path d="" fill="#000000" transform="translate(0,0)"/>
<path d="" fill="#000000" transform="translate(0,0)"/>
<path d="" fill="#000000" transform="translate(0,0)"/>
<path d="" fill="#000000" transform="translate(0,0)"/>
<path d="" fill="#000000" transform="translate(0,0)"/>
<path d="" fill="#000000" transform="translate(0,0)"/>
<path d="" fill="#000000" transform="translate(0,0)"/>
<path d="" fill="#000000" transform="translate(0,0)"/>
<path d="" fill="#000000" transform="translate(0,0)"/>
<path d="" fill="#000000" transform="translate(0,0)"/>
<path d="" fill="#000000" transform="translate(0,0)"/>
<path d="" fill="#000000" transform="translate(0,0)"/>
<path d="" fill="#000000" transform="translate(0,0)"/>
<path d="" fill="#000000" transform="translate(0,0)"/>
<path d="" fill="#000000" transform="translate(0,0)"/>
</svg>
